<svg width="32" height="32" viewBox="0 0 32 32" fill="none" xmlns="http://www.w3.org/2000/svg">
<g clip-path="url(#clip0_171_2)">
<rect width="32" height="32" fill="black"/>
<path d="M10.1875 11.6562L7.74219 21H5.32812L8.88281 9.625H10.3906L10.1875 11.6562ZM12.1172 21L9.65625 11.6562L9.42969 9.625H10.9609L14.5469 21H12.1172ZM12.2031 16.7578V18.6562H7.07031V16.7578H12.2031ZM16.4453 9.625H18.4531L20.7734 17.4062L23.0859 9.625H24.8594L21.625 21H19.9141L16.4453 9.625ZM15.6328 9.625H17.5469L17.8438 17.125V21H15.6328V9.625ZM23.9844 9.625H25.9062V21H23.7031V17.125L23.9844 9.625Z" fill="white"/>
</g>
<defs>
<clipPath id="clip0_171_2">
<rect width="32" height="32" fill="white"/>
</clipPath>
</defs>
</svg>
